<?xml version="1.0" encoding="UTF-8" standalone="no"?>
<!-- Generator: Adobe Illustrator 16.0.0, SVG Export Plug-In . SVG Version: 6.00 Build 0)  -->

<svg
   xmlns:dc="http://purl.org/dc/elements/1.1/"
   xmlns:cc="http://creativecommons.org/ns#"
   xmlns:rdf="http://www.w3.org/1999/02/22-rdf-syntax-ns#"
   xmlns:svg="http://www.w3.org/2000/svg"
   xmlns="http://www.w3.org/2000/svg"
   xmlns:sodipodi="http://sodipodi.sourceforge.net/DTD/sodipodi-0.dtd"
   xmlns:inkscape="http://www.inkscape.org/namespaces/inkscape"
   version="1.1"
   id="Capa_1"
   x="0px"
   y="0px"
   width="360"
   height="360"
   viewBox="0 0 360 360"
   xml:space="preserve"
   inkscape:version="0.48.1 "
   sodipodi:docname="account-in.svg"><metadata
   id="metadata42"><rdf:RDF><cc:Work
       rdf:about=""><dc:format>image/svg+xml</dc:format><dc:type
         rdf:resource="http://purl.org/dc/dcmitype/StillImage" /><dc:title /></cc:Work></rdf:RDF></metadata><defs
   id="defs40">
	
</defs><sodipodi:namedview
   pagecolor="#ffffff"
   bordercolor="#666666"
   borderopacity="1"
   objecttolerance="10"
   gridtolerance="10"
   guidetolerance="10"
   inkscape:pageopacity="0"
   inkscape:pageshadow="2"
   inkscape:window-width="1920"
   inkscape:window-height="1137"
   id="namedview38"
   showgrid="false"
   inkscape:zoom="0.56862745"
   inkscape:cx="471.31034"
   inkscape:cy="229.5"
   inkscape:window-x="-8"
   inkscape:window-y="-8"
   inkscape:window-maximized="1"
   inkscape:current-layer="Capa_1" />
<g
   id="account-box"
   style="fill:#4cbaf7;fill-opacity:1"
   transform="translate(-49.5,-49.5)">
		<path
   inkscape:connector-curvature="0"
   id="path6"
   d="m 306,153 c 0,43.35 -33.15,76.5 -76.5,76.5 -43.35,0 -76.5,-33.15 -76.5,-76.5 0,-43.35 33.15,-76.5 76.5,-76.5 43.35,0 76.5,33.15 76.5,76.5 z M 76.5,357 c 0,-51 102,-79.05 153,-79.05 51,0 153,28.05 153,79.05 l 0,25.5 -306,0 z"
   sodipodi:nodetypes="ssssssssccs"
   style="fill:#4cbaf7;fill-opacity:1" />
	</g>
<g
   id="g8"
   transform="translate(0,-99)">
</g>
<g
   id="g10"
   transform="translate(0,-99)">
</g>
<g
   id="g12"
   transform="translate(0,-99)">
</g>
<g
   id="g14"
   transform="translate(0,-99)">
</g>
<g
   id="g16"
   transform="translate(0,-99)">
</g>
<g
   id="g18"
   transform="translate(0,-99)">
</g>
<g
   id="g20"
   transform="translate(0,-99)">
</g>
<g
   id="g22"
   transform="translate(0,-99)">
</g>
<g
   id="g24"
   transform="translate(0,-99)">
</g>
<g
   id="g26"
   transform="translate(0,-99)">
</g>
<g
   id="g28"
   transform="translate(0,-99)">
</g>
<g
   id="g30"
   transform="translate(0,-99)">
</g>
<g
   id="g32"
   transform="translate(0,-99)">
</g>
<g
   id="g34"
   transform="translate(0,-99)">
</g>
<g
   id="g36"
   transform="translate(0,-99)">
</g>
<path
   sodipodi:type="arc"
   style="fill:#00dd5e;fill-opacity:1;stroke:#ffffff;stroke-width:7.09677457999999990;stroke-miterlimit:4;stroke-opacity:1;stroke-dasharray:none"
   id="path3021"
   sodipodi:cx="359.63794"
   sodipodi:cy="361.39655"
   sodipodi:rx="48.362068"
   sodipodi:ry="48.362068"
   d="m 408.00001,361.39655 a 48.362068,48.362068 0 1 1 -96.72414,0 48.362068,48.362068 0 1 1 96.72414,0 z"
   transform="matrix(1.1272727,0,0,1.1272727,-106.61693,-108.59938)" /></svg>